<svg t="1733711461719" class="icon" viewBox="0 0 1024 1024" version="1.1" xmlns="http://www.w3.org/2000/svg" p-id="21516" width="200" height="200"><path d="M237.114 775.102c0-25.627-20.849-46.427-46.55-46.427L66.502 728.675c-25.666 0-46.51 20.805-46.51 46.427s20.845 46.427 46.51 46.427l124.062 0C216.274 821.529 237.114 800.727 237.114 775.102z" fill="#1296db" p-id="21517"></path><path d="M19.992 511.96c0 25.661 20.845 46.427 46.51 46.427l124.062 0c25.711 0 46.55-20.761 46.55-46.427 0-25.672-20.849-46.473-46.55-46.473L66.502 465.487C40.836 465.487 19.992 486.288 19.992 511.96z" fill="#1296db" p-id="21518"></path><path d="M66.492 295.238l124.063 0c25.71 0 46.555-20.8 46.555-46.427 0-25.667-20.85-46.427-46.555-46.427L66.492 202.384c-25.66 0-46.504 20.761-46.504 46.428C19.987 274.434 40.832 295.238 66.492 295.238z" fill="#1296db" p-id="21519"></path><path d="M612.328 306.682l-3.517 0c-1.563 17.713-5.077 34.766-10.547 51.172l-69.142 211.331 161.329 0-68.75-209.769C617.271 346.135 614.146 328.557 612.328 306.682z" fill="#1296db" p-id="21520"></path><path d="M927.656 63.058l-47.874 0-16.371 0L655.796 63.058l0-0.005L159.558 63.053c-25.706 0-46.505 20.785-46.505 46.427l0 46.427 77.506 0c51.417 0 93.061 41.606 93.061 92.899 0 51.288-41.644 92.893-93.061 92.893l-77.506 0 0 77.396 77.506 0c51.417 0 93.061 41.562 93.061 92.855 0 51.293-41.644 92.854-93.061 92.854l-77.506 0 0 77.394 77.506 0c51.417 0 93.061 41.606 93.061 92.901 0 51.288-41.644 92.893-93.061 92.893l-77.506 0 0 46.387c0 25.665 20.805 46.473 46.505 46.473l457.76 0 38.479 0 207.615 0 0 0.005 64.245 0 0-0.01c35.419 0 64.185-20.804 64.185-46.469L991.842 109.485C991.841 83.842 963.076 63.058 927.656 63.058zM766.233 807.467l-45.311-138.673L500.998 668.794l-44.531 138.673L316.622 807.467l221.486-605.083 151.563 0 217.189 605.083L766.233 807.467z" fill="#1296db" p-id="21521"></path></svg>