<svg t="1733711264434" class="icon" viewBox="0 0 1024 1024" version="1.1" xmlns="http://www.w3.org/2000/svg" p-id="19524" width="200" height="200"><path d="M190.72 185.301333l52.693333 595.669334a41.386667 41.386667 0 0 0 30.037334 36.224l148.906666 41.642666a331.008 331.008 0 0 0 178.346667 0l149.589333-41.813333a41.386667 41.386667 0 0 0 30.08-36.181333l52.778667-595.498667a41.386667 41.386667 0 0 0-41.216-45.056H231.936a41.386667 41.386667 0 0 0-41.216 45.013333z m479.786667 173.866667H439.04a38.613333 38.613333 0 0 0-38.485333 41.984l0.384 4.266667a41.386667 41.386667 0 0 0 41.216 37.76h213.674666a41.386667 41.386667 0 0 1 41.216 45.013333l-15.872 178.432a41.386667 41.386667 0 0 1-30.08 36.181333l-94.890666 26.538667a165.504 165.504 0 0 1-89.173334 0l-94.634666-26.538667a41.386667 41.386667 0 0 1-30.08-36.181333l-5.290667-59.648a37.418667 37.418667 0 0 1 37.290667-40.746667h7.978666c18.645333 0 34.176 14.208 35.84 32.768l0.341334 4.053334a41.386667 41.386667 0 0 0 30.378666 36.266666c44.373333 17.066667 44.501333 17.066667 63.146667 16.981334 14.592-0.042667 36.352-5.12 65.28-15.232a41.386667 41.386667 0 0 0 27.562667-35.413334l3.157333-35.328a41.386667 41.386667 0 0 0-41.216-45.056H367.616a41.386667 41.386667 0 0 1-41.216-37.717333L311.765333 322.133333a41.386667 41.386667 0 0 1 41.216-45.056h321.493334a37.674667 37.674667 0 0 1 37.546666 41.045334l-0.298666 3.242666a41.386667 41.386667 0 0 1-41.216 37.76z" fill="#FF6D48" p-id="19525"></path></svg>